<svg width="42" height="43" viewBox="0 0 42 43" fill="none" xmlns="http://www.w3.org/2000/svg">
<circle cx="20.9999" cy="21.2892" r="20.9574" fill="white"/>
<path d="M23.4946 11.1726C22.1346 11.1726 20.8304 11.7128 19.8688 12.6744C18.9072 13.6361 18.3669 14.9403 18.3669 16.3002V19.155H15.623C15.4855 19.155 15.3735 19.2659 15.3735 19.4045V23.174C15.3735 23.3115 15.4844 23.4234 15.623 23.4234H18.3669V31.1564C18.3669 31.2939 18.4778 31.4059 18.6164 31.4059H22.3859C22.5234 31.4059 22.6353 31.295 22.6353 31.1564V23.4234H25.4037C25.5179 23.4234 25.6177 23.3458 25.6454 23.235L26.5877 19.4655C26.597 19.4287 26.5978 19.3903 26.59 19.3532C26.5822 19.316 26.566 19.2812 26.5427 19.2513C26.5194 19.2213 26.4896 19.1971 26.4555 19.1804C26.4214 19.1638 26.384 19.1551 26.3461 19.155H22.6353V16.3002C22.6353 16.1874 22.6576 16.0757 22.7007 15.9714C22.7439 15.8672 22.8072 15.7724 22.887 15.6927C22.9668 15.6129 23.0615 15.5496 23.1657 15.5064C23.27 15.4632 23.3817 15.441 23.4946 15.441H26.3771C26.5146 15.441 26.6266 15.3301 26.6266 15.1915V11.4221C26.6266 11.2846 26.5157 11.1726 26.3771 11.1726H23.4946Z" fill="black"/>
</svg>
