<svg width="43" height="43" viewBox="0 0 43 43" fill="none" xmlns="http://www.w3.org/2000/svg">
<circle cx="21.4574" cy="21.2892" r="20.9574" fill="white"/>
<path d="M22.4348 11.783C23.1286 11.7804 23.8223 11.7873 24.5159 11.8039L24.7004 11.8106C24.9133 11.8182 25.1234 11.8277 25.3773 11.8391C26.3888 11.8867 27.0791 12.0464 27.6847 12.2812C28.3121 12.5227 28.8407 12.8497 29.3693 13.3783C29.8527 13.8533 30.2267 14.4279 30.4655 15.0621C30.7003 15.6677 30.8601 16.3588 30.9076 17.3704C30.919 17.6233 30.9285 17.8344 30.9361 18.0473L30.9418 18.2318C30.9587 18.925 30.966 19.6185 30.9637 20.3119L30.9646 21.0212V22.2666C30.967 22.9604 30.9597 23.6542 30.9428 24.3477L30.9371 24.5322C30.9295 24.7451 30.92 24.9552 30.9086 25.2091C30.861 26.2207 30.6994 26.9109 30.4655 27.5165C30.2275 28.1513 29.8533 28.7264 29.3693 29.2012C28.8939 29.6844 28.3191 30.0585 27.6847 30.2973C27.0791 30.5322 26.3888 30.6919 25.3773 30.7394C25.1234 30.7508 24.9133 30.7603 24.7004 30.768L24.5159 30.7737C23.8223 30.7906 23.1286 30.7978 22.4348 30.7955L21.7256 30.7965H20.4811C19.7873 30.7988 19.0935 30.7915 18.3999 30.7746L18.2155 30.7689C17.9898 30.7607 17.7642 30.7512 17.5386 30.7404C16.527 30.6928 15.8368 30.5312 15.2302 30.2973C14.5958 30.059 14.0211 29.6849 13.5465 29.2012C13.0626 28.7261 12.6882 28.1512 12.4494 27.5165C12.2146 26.9109 12.0548 26.2207 12.0073 25.2091C11.9967 24.9835 11.9872 24.7579 11.9788 24.5322L11.974 24.3477C11.9565 23.6542 11.9486 22.9604 11.9503 22.2666V20.3119C11.9476 19.6185 11.9546 18.925 11.9712 18.2318L11.9778 18.0473C11.9854 17.8344 11.9949 17.6233 12.0063 17.3704C12.0539 16.3579 12.2136 15.6686 12.4484 15.0621C12.6874 14.4276 13.0626 13.8532 13.5475 13.3793C14.0218 12.8951 14.5961 12.5204 15.2302 12.2812C15.8368 12.0464 16.5261 11.8867 17.5386 11.8391L18.2155 11.8106L18.3999 11.8058C19.0932 11.7883 19.7866 11.7804 20.4801 11.7821L22.4348 11.783ZM21.4575 16.5366C20.8276 16.5277 20.2023 16.6441 19.6178 16.879C19.0333 17.1138 18.5013 17.4625 18.0528 17.9048C17.6042 18.347 17.248 18.874 17.0049 19.4551C16.7618 20.0362 16.6366 20.6598 16.6366 21.2898C16.6366 21.9197 16.7618 22.5433 17.0049 23.1244C17.248 23.7055 17.6042 24.2325 18.0528 24.6747C18.5013 25.117 19.0333 25.4657 19.6178 25.7006C20.2023 25.9354 20.8276 26.0518 21.4575 26.0429C22.7182 26.0429 23.9273 25.542 24.8188 24.6506C25.7102 23.7591 26.211 22.55 26.211 21.2893C26.211 20.0285 25.7102 18.8194 24.8188 17.928C23.9273 17.0365 22.7182 16.5366 21.4575 16.5366ZM21.4575 18.4381C21.8363 18.4311 22.2128 18.4997 22.5648 18.6398C22.9169 18.78 23.2375 18.9889 23.5079 19.2543C23.7784 19.5197 23.9932 19.8364 24.1399 20.1858C24.2865 20.5352 24.3621 20.9103 24.3622 21.2893C24.3622 21.6682 24.2868 22.0433 24.1402 22.3928C23.9937 22.7422 23.779 23.059 23.5086 23.3245C23.2383 23.59 22.9177 23.7991 22.5657 23.9393C22.2137 24.0796 21.8373 24.1483 21.4584 24.1414C20.702 24.1414 19.9765 23.8409 19.4416 23.3061C18.9067 22.7712 18.6062 22.0457 18.6062 21.2893C18.6062 20.5328 18.9067 19.8074 19.4416 19.2725C19.9765 18.7376 20.702 18.4371 21.4584 18.4371L21.4575 18.4381ZM26.4487 15.1105C26.142 15.1228 25.852 15.2533 25.6393 15.4746C25.4266 15.696 25.3079 15.991 25.3079 16.298C25.3079 16.605 25.4266 16.9 25.6393 17.1213C25.852 17.3427 26.142 17.4732 26.4487 17.4854C26.7639 17.4854 27.0662 17.3602 27.2891 17.1374C27.5119 16.9145 27.6371 16.6122 27.6371 16.297C27.6371 15.9819 27.5119 15.6796 27.2891 15.4567C27.0662 15.2339 26.7639 15.1086 26.4487 15.1086V15.1105Z" fill="black"/>
</svg>
