<svg width="43" height="42" viewBox="0 0 43 42" fill="none" xmlns="http://www.w3.org/2000/svg">
<circle cx="21.0829" cy="20.9709" r="20.955" fill="white"/>
<path d="M28.2422 11.7661C28.7848 11.7661 29.305 11.9816 29.6887 12.3652C30.0723 12.7489 30.2878 13.2691 30.2878 13.8117V28.1304C30.2878 28.6729 30.0723 29.1932 29.6887 29.5768C29.305 29.9605 28.7848 30.176 28.2422 30.176H13.9235C13.381 30.176 12.8607 29.9605 12.4771 29.5768C12.0934 29.1932 11.8779 28.6729 11.8779 28.1304V13.8117C11.8779 13.2691 12.0934 12.7489 12.4771 12.3652C12.8607 11.9816 13.381 11.7661 13.9235 11.7661H28.2422ZM27.7309 27.619V22.1984C27.7309 21.3141 27.3796 20.466 26.7543 19.8407C26.129 19.2154 25.2809 18.8641 24.3966 18.8641C23.5273 18.8641 22.5147 19.396 22.0238 20.1937V19.0585H19.1703V27.619H22.0238V22.5768C22.0238 21.7893 22.6579 21.1449 23.4455 21.1449C23.8252 21.1449 24.1894 21.2958 24.4579 21.5643C24.7265 21.8328 24.8773 22.197 24.8773 22.5768V27.619H27.7309ZM15.8463 17.4527C16.302 17.4527 16.739 17.2717 17.0613 16.9494C17.3835 16.6272 17.5645 16.1902 17.5645 15.7345C17.5645 14.7833 16.7975 14.006 15.8463 14.006C15.3879 14.006 14.9482 14.1881 14.6241 14.5122C14.2999 14.8364 14.1178 15.276 14.1178 15.7345C14.1178 16.6856 14.8951 17.4527 15.8463 17.4527ZM17.2679 27.619V19.0585H14.4349V27.619H17.2679Z" fill="black"/>
</svg>
