<svg width="178" height="178" viewBox="0 0 178 178" fill="none" xmlns="http://www.w3.org/2000/svg">
<path d="M63.9311 0H56.8276V7.10345H63.9311V0Z" fill="black"/>
<path d="M85.2411 0H78.1377V7.10345H85.2411V0Z" fill="black"/>
<path d="M99.4482 0H92.3447V7.10345H99.4482V0Z" fill="black"/>
<path d="M106.552 0H99.4482V7.10345H106.552V0Z" fill="black"/>
<path d="M63.9311 7.10352H56.8276V14.207H63.9311V7.10352Z" fill="black"/>
<path d="M71.0346 7.10352H63.9312V14.207H71.0346V7.10352Z" fill="black"/>
<path d="M78.1381 7.10352H71.0347V14.207H78.1381V7.10352Z" fill="black"/>
<path d="M92.3447 7.10352H85.2412V14.207H92.3447V7.10352Z" fill="black"/>
<path d="M99.4482 7.10352H92.3447V14.207H99.4482V7.10352Z" fill="black"/>
<path d="M63.9311 14.2068H56.8276V21.3102H63.9311V14.2068Z" fill="black"/>
<path d="M85.2411 14.2068H78.1377V21.3102H85.2411V14.2068Z" fill="black"/>
<path d="M99.4482 14.2068H92.3447V21.3102H99.4482V14.2068Z" fill="black"/>
<path d="M106.552 14.2068H99.4482V21.3102H106.552V14.2068Z" fill="black"/>
<path d="M113.655 14.2068H106.552V21.3102H113.655V14.2068Z" fill="black"/>
<path d="M71.0346 21.3103H63.9312V28.4138H71.0346V21.3103Z" fill="black"/>
<path d="M78.1381 21.3103H71.0347V28.4138H78.1381V21.3103Z" fill="black"/>
<path d="M85.2411 21.3103H78.1377V28.4138H85.2411V21.3103Z" fill="black"/>
<path d="M92.3447 21.3103H85.2412V28.4138H92.3447V21.3103Z" fill="black"/>
<path d="M99.4482 21.3103H92.3447V28.4138H99.4482V21.3103Z" fill="black"/>
<path d="M106.552 21.3103H99.4482V28.4138H106.552V21.3103Z" fill="black"/>
<path d="M113.655 21.3103H106.552V28.4138H113.655V21.3103Z" fill="black"/>
<path d="M120.759 21.3103H113.655V28.4138H120.759V21.3103Z" fill="black"/>
<path d="M63.9311 28.4138H56.8276V35.5173H63.9311V28.4138Z" fill="black"/>
<path d="M78.1381 28.4138H71.0347V35.5173H78.1381V28.4138Z" fill="black"/>
<path d="M99.4482 28.4138H92.3447V35.5173H99.4482V28.4138Z" fill="black"/>
<path d="M106.552 28.4138H99.4482V35.5173H106.552V28.4138Z" fill="black"/>
<path d="M120.759 28.4138H113.655V35.5173H120.759V28.4138Z" fill="black"/>
<path d="M71.0346 35.5173H63.9312V42.6208H71.0346V35.5173Z" fill="black"/>
<path d="M78.1381 35.5173H71.0347V42.6208H78.1381V35.5173Z" fill="black"/>
<path d="M85.2411 35.5173H78.1377V42.6208H85.2411V35.5173Z" fill="black"/>
<path d="M92.3447 35.5173H85.2412V42.6208H92.3447V35.5173Z" fill="black"/>
<path d="M99.4482 35.5173H92.3447V42.6208H99.4482V35.5173Z" fill="black"/>
<path d="M106.552 35.5173H99.4482V42.6208H106.552V35.5173Z" fill="black"/>
<path d="M63.9311 42.6207H56.8276V49.7242H63.9311V42.6207Z" fill="black"/>
<path d="M78.1381 42.6207H71.0347V49.7242H78.1381V42.6207Z" fill="black"/>
<path d="M92.3447 42.6207H85.2412V49.7242H92.3447V42.6207Z" fill="black"/>
<path d="M106.552 42.6207H99.4482V49.7242H106.552V42.6207Z" fill="black"/>
<path d="M120.759 42.6207H113.655V49.7242H120.759V42.6207Z" fill="black"/>
<path d="M71.0346 49.7241H63.9312V56.8276H71.0346V49.7241Z" fill="black"/>
<path d="M92.3447 49.7241H85.2412V56.8276H92.3447V49.7241Z" fill="black"/>
<path d="M99.4482 49.7241H92.3447V56.8276H99.4482V49.7241Z" fill="black"/>
<path d="M106.552 49.7241H99.4482V56.8276H106.552V49.7241Z" fill="black"/>
<path d="M113.655 49.7241H106.552V56.8276H113.655V49.7241Z" fill="black"/>
<path d="M120.759 49.7241H113.655V56.8276H120.759V49.7241Z" fill="black"/>
<path d="M7.10345 56.8276H0V63.9311H7.10345V56.8276Z" fill="black"/>
<path d="M28.414 56.8276H21.3105V63.9311H28.414V56.8276Z" fill="black"/>
<path d="M35.517 56.8276H28.4136V63.9311H35.517V56.8276Z" fill="black"/>
<path d="M42.6205 56.8276H35.5171V63.9311H42.6205V56.8276Z" fill="black"/>
<path d="M49.7241 56.8276H42.6206V63.9311H49.7241V56.8276Z" fill="black"/>
<path d="M56.8276 56.8276H49.7241V63.9311H56.8276V56.8276Z" fill="black"/>
<path d="M63.9311 56.8276H56.8276V63.9311H63.9311V56.8276Z" fill="black"/>
<path d="M71.0346 56.8276H63.9312V63.9311H71.0346V56.8276Z" fill="black"/>
<path d="M85.2411 56.8276H78.1377V63.9311H85.2411V56.8276Z" fill="black"/>
<path d="M92.3447 56.8276H85.2412V63.9311H92.3447V56.8276Z" fill="black"/>
<path d="M106.552 56.8276H99.4482V63.9311H106.552V56.8276Z" fill="black"/>
<path d="M113.655 56.8276H106.552V63.9311H113.655V56.8276Z" fill="black"/>
<path d="M120.759 56.8276H113.655V63.9311H120.759V56.8276Z" fill="black"/>
<path d="M127.862 56.8276H120.759V63.9311H127.862V56.8276Z" fill="black"/>
<path d="M149.172 56.8276H142.069V63.9311H149.172V56.8276Z" fill="black"/>
<path d="M163.379 56.8276H156.276V63.9311H163.379V56.8276Z" fill="black"/>
<path d="M170.483 56.8276H163.379V63.9311H170.483V56.8276Z" fill="black"/>
<path d="M177.586 56.8276H170.483V63.9311H177.586V56.8276Z" fill="black"/>
<path d="M14.207 63.931H7.10352V71.0345H14.207V63.931Z" fill="black"/>
<path d="M21.3105 63.931H14.207V71.0345H21.3105V63.931Z" fill="black"/>
<path d="M28.414 63.931H21.3105V71.0345H28.414V63.931Z" fill="black"/>
<path d="M35.517 63.931H28.4136V71.0345H35.517V63.931Z" fill="black"/>
<path d="M56.8276 63.931H49.7241V71.0345H56.8276V63.931Z" fill="black"/>
<path d="M71.0346 63.931H63.9312V71.0345H71.0346V63.931Z" fill="black"/>
<path d="M78.1381 63.931H71.0347V71.0345H78.1381V63.931Z" fill="black"/>
<path d="M85.2411 63.931H78.1377V71.0345H85.2411V63.931Z" fill="black"/>
<path d="M106.552 63.931H99.4482V71.0345H106.552V63.931Z" fill="black"/>
<path d="M113.655 63.931H106.552V71.0345H113.655V63.931Z" fill="black"/>
<path d="M127.862 63.931H120.759V71.0345H127.862V63.931Z" fill="black"/>
<path d="M142.069 63.931H134.965V71.0345H142.069V63.931Z" fill="black"/>
<path d="M149.172 63.931H142.069V71.0345H149.172V63.931Z" fill="black"/>
<path d="M156.276 63.931H149.172V71.0345H156.276V63.931Z" fill="black"/>
<path d="M163.379 63.931H156.276V71.0345H163.379V63.931Z" fill="black"/>
<path d="M170.483 63.931H163.379V71.0345H170.483V63.931Z" fill="black"/>
<path d="M7.10345 71.0344H0V78.1379H7.10345V71.0344Z" fill="black"/>
<path d="M14.207 71.0344H7.10352V78.1379H14.207V71.0344Z" fill="black"/>
<path d="M28.414 71.0344H21.3105V78.1379H28.414V71.0344Z" fill="black"/>
<path d="M35.517 71.0344H28.4136V78.1379H35.517V71.0344Z" fill="black"/>
<path d="M42.6205 71.0344H35.5171V78.1379H42.6205V71.0344Z" fill="black"/>
<path d="M49.7241 71.0344H42.6206V78.1379H49.7241V71.0344Z" fill="black"/>
<path d="M56.8276 71.0344H49.7241V78.1379H56.8276V71.0344Z" fill="black"/>
<path d="M99.4482 71.0344H92.3447V78.1379H99.4482V71.0344Z" fill="black"/>
<path d="M106.552 71.0344H99.4482V78.1379H106.552V71.0344Z" fill="black"/>
<path d="M113.655 71.0344H106.552V78.1379H113.655V71.0344Z" fill="black"/>
<path d="M120.759 71.0344H113.655V78.1379H120.759V71.0344Z" fill="black"/>
<path d="M134.966 71.0344H127.862V78.1379H134.966V71.0344Z" fill="black"/>
<path d="M142.069 71.0344H134.965V78.1379H142.069V71.0344Z" fill="black"/>
<path d="M156.276 71.0344H149.172V78.1379H156.276V71.0344Z" fill="black"/>
<path d="M177.586 71.0344H170.483V78.1379H177.586V71.0344Z" fill="black"/>
<path d="M14.207 78.1379H7.10352V85.2414H14.207V78.1379Z" fill="black"/>
<path d="M21.3105 78.1379H14.207V85.2414H21.3105V78.1379Z" fill="black"/>
<path d="M28.414 78.1379H21.3105V85.2414H28.414V78.1379Z" fill="black"/>
<path d="M56.8276 78.1379H49.7241V85.2414H56.8276V78.1379Z" fill="black"/>
<path d="M63.9311 78.1379H56.8276V85.2414H63.9311V78.1379Z" fill="black"/>
<path d="M71.0346 78.1379H63.9312V85.2414H71.0346V78.1379Z" fill="black"/>
<path d="M78.1381 78.1379H71.0347V85.2414H78.1381V78.1379Z" fill="black"/>
<path d="M106.552 78.1379H99.4482V85.2414H106.552V78.1379Z" fill="black"/>
<path d="M113.655 78.1379H106.552V85.2414H113.655V78.1379Z" fill="black"/>
<path d="M142.069 78.1379H134.965V85.2414H142.069V78.1379Z" fill="black"/>
<path d="M156.276 78.1379H149.172V85.2414H156.276V78.1379Z" fill="black"/>
<path d="M163.379 78.1379H156.276V85.2414H163.379V78.1379Z" fill="black"/>
<path d="M170.483 78.1379H163.379V85.2414H170.483V78.1379Z" fill="black"/>
<path d="M177.586 78.1379H170.483V85.2414H177.586V78.1379Z" fill="black"/>
<path d="M21.3105 85.2413H14.207V92.3448H21.3105V85.2413Z" fill="black"/>
<path d="M42.6205 85.2413H35.5171V92.3448H42.6205V85.2413Z" fill="black"/>
<path d="M49.7241 85.2413H42.6206V92.3448H49.7241V85.2413Z" fill="black"/>
<path d="M56.8276 85.2413H49.7241V92.3448H56.8276V85.2413Z" fill="black"/>
<path d="M71.0346 85.2413H63.9312V92.3448H71.0346V85.2413Z" fill="black"/>
<path d="M92.3447 85.2413H85.2412V92.3448H92.3447V85.2413Z" fill="black"/>
<path d="M120.759 85.2413H113.655V92.3448H120.759V85.2413Z" fill="black"/>
<path d="M134.966 85.2413H127.862V92.3448H134.966V85.2413Z" fill="black"/>
<path d="M177.586 85.2413H170.483V92.3448H177.586V85.2413Z" fill="black"/>
<path d="M7.10345 92.3448H0V99.4483H7.10345V92.3448Z" fill="black"/>
<path d="M14.207 92.3448H7.10352V99.4483H14.207V92.3448Z" fill="black"/>
<path d="M21.3105 92.3448H14.207V99.4483H21.3105V92.3448Z" fill="black"/>
<path d="M35.517 92.3448H28.4136V99.4483H35.517V92.3448Z" fill="black"/>
<path d="M42.6205 92.3448H35.5171V99.4483H42.6205V92.3448Z" fill="black"/>
<path d="M56.8276 92.3448H49.7241V99.4483H56.8276V92.3448Z" fill="black"/>
<path d="M106.552 92.3448H99.4482V99.4483H106.552V92.3448Z" fill="black"/>
<path d="M113.655 92.3448H106.552V99.4483H113.655V92.3448Z" fill="black"/>
<path d="M120.759 92.3448H113.655V99.4483H120.759V92.3448Z" fill="black"/>
<path d="M127.862 92.3448H120.759V99.4483H127.862V92.3448Z" fill="black"/>
<path d="M149.172 92.3448H142.069V99.4483H149.172V92.3448Z" fill="black"/>
<path d="M170.483 92.3448H163.379V99.4483H170.483V92.3448Z" fill="black"/>
<path d="M7.10345 99.4482H0V106.552H7.10345V99.4482Z" fill="black"/>
<path d="M14.207 99.4482H7.10352V106.552H14.207V99.4482Z" fill="black"/>
<path d="M21.3105 99.4482H14.207V106.552H21.3105V99.4482Z" fill="black"/>
<path d="M28.414 99.4482H21.3105V106.552H28.414V99.4482Z" fill="black"/>
<path d="M35.517 99.4482H28.4136V106.552H35.517V99.4482Z" fill="black"/>
<path d="M42.6205 99.4482H35.5171V106.552H42.6205V99.4482Z" fill="black"/>
<path d="M49.7241 99.4482H42.6206V106.552H49.7241V99.4482Z" fill="black"/>
<path d="M63.9311 99.4482H56.8276V106.552H63.9311V99.4482Z" fill="black"/>
<path d="M71.0346 99.4482H63.9312V106.552H71.0346V99.4482Z" fill="black"/>
<path d="M85.2411 99.4482H78.1377V106.552H85.2411V99.4482Z" fill="black"/>
<path d="M92.3447 99.4482H85.2412V106.552H92.3447V99.4482Z" fill="black"/>
<path d="M106.552 99.4482H99.4482V106.552H106.552V99.4482Z" fill="black"/>
<path d="M113.655 99.4482H106.552V106.552H113.655V99.4482Z" fill="black"/>
<path d="M127.862 99.4482H120.759V106.552H127.862V99.4482Z" fill="black"/>
<path d="M134.966 99.4482H127.862V106.552H134.966V99.4482Z" fill="black"/>
<path d="M149.172 99.4482H142.069V106.552H149.172V99.4482Z" fill="black"/>
<path d="M156.276 99.4482H149.172V106.552H156.276V99.4482Z" fill="black"/>
<path d="M163.379 99.4482H156.276V106.552H163.379V99.4482Z" fill="black"/>
<path d="M170.483 99.4482H163.379V106.552H170.483V99.4482Z" fill="black"/>
<path d="M177.586 99.4482H170.483V106.552H177.586V99.4482Z" fill="black"/>
<path d="M7.10345 106.552H0V113.655H7.10345V106.552Z" fill="black"/>
<path d="M21.3105 106.552H14.207V113.655H21.3105V106.552Z" fill="black"/>
<path d="M35.517 106.552H28.4136V113.655H35.517V106.552Z" fill="black"/>
<path d="M42.6205 106.552H35.5171V113.655H42.6205V106.552Z" fill="black"/>
<path d="M56.8276 106.552H49.7241V113.655H56.8276V106.552Z" fill="black"/>
<path d="M71.0346 106.552H63.9312V113.655H71.0346V106.552Z" fill="black"/>
<path d="M85.2411 106.552H78.1377V113.655H85.2411V106.552Z" fill="black"/>
<path d="M113.655 106.552H106.552V113.655H113.655V106.552Z" fill="black"/>
<path d="M127.862 106.552H120.759V113.655H127.862V106.552Z" fill="black"/>
<path d="M142.069 106.552H134.965V113.655H142.069V106.552Z" fill="black"/>
<path d="M156.276 106.552H149.172V113.655H156.276V106.552Z" fill="black"/>
<path d="M163.379 106.552H156.276V113.655H163.379V106.552Z" fill="black"/>
<path d="M177.586 106.552H170.483V113.655H177.586V106.552Z" fill="black"/>
<path d="M7.10345 113.655H0V120.759H7.10345V113.655Z" fill="black"/>
<path d="M21.3105 113.655H14.207V120.759H21.3105V113.655Z" fill="black"/>
<path d="M42.6205 113.655H35.5171V120.759H42.6205V113.655Z" fill="black"/>
<path d="M49.7241 113.655H42.6206V120.759H49.7241V113.655Z" fill="black"/>
<path d="M56.8276 113.655H49.7241V120.759H56.8276V113.655Z" fill="black"/>
<path d="M71.0346 113.655H63.9312V120.759H71.0346V113.655Z" fill="black"/>
<path d="M99.4482 113.655H92.3447V120.759H99.4482V113.655Z" fill="black"/>
<path d="M120.759 113.655H113.655V120.759H120.759V113.655Z" fill="black"/>
<path d="M127.862 113.655H120.759V120.759H127.862V113.655Z" fill="black"/>
<path d="M134.966 113.655H127.862V120.759H134.966V113.655Z" fill="black"/>
<path d="M142.069 113.655H134.965V120.759H142.069V113.655Z" fill="black"/>
<path d="M149.172 113.655H142.069V120.759H149.172V113.655Z" fill="black"/>
<path d="M163.379 113.655H156.276V120.759H163.379V113.655Z" fill="black"/>
<path d="M170.483 113.655H163.379V120.759H170.483V113.655Z" fill="black"/>
<path d="M63.9311 120.759H56.8276V127.862H63.9311V120.759Z" fill="black"/>
<path d="M71.0346 120.759H63.9312V127.862H71.0346V120.759Z" fill="black"/>
<path d="M85.2411 120.759H78.1377V127.862H85.2411V120.759Z" fill="black"/>
<path d="M92.3447 120.759H85.2412V127.862H92.3447V120.759Z" fill="black"/>
<path d="M99.4482 120.759H92.3447V127.862H99.4482V120.759Z" fill="black"/>
<path d="M120.759 120.759H113.655V127.862H120.759V120.759Z" fill="black"/>
<path d="M149.172 120.759H142.069V127.862H149.172V120.759Z" fill="black"/>
<path d="M163.379 120.759H156.276V127.862H163.379V120.759Z" fill="black"/>
<path d="M170.483 120.759H163.379V127.862H170.483V120.759Z" fill="black"/>
<path d="M63.9311 127.862H56.8276V134.966H63.9311V127.862Z" fill="black"/>
<path d="M71.0346 127.862H63.9312V134.966H71.0346V127.862Z" fill="black"/>
<path d="M78.1381 127.862H71.0347V134.966H78.1381V127.862Z" fill="black"/>
<path d="M85.2411 127.862H78.1377V134.966H85.2411V127.862Z" fill="black"/>
<path d="M99.4482 127.862H92.3447V134.966H99.4482V127.862Z" fill="black"/>
<path d="M120.759 127.862H113.655V134.966H120.759V127.862Z" fill="black"/>
<path d="M134.966 127.862H127.862V134.966H134.966V127.862Z" fill="black"/>
<path d="M149.172 127.862H142.069V134.966H149.172V127.862Z" fill="black"/>
<path d="M177.586 127.862H170.483V134.966H177.586V127.862Z" fill="black"/>
<path d="M63.9311 134.966H56.8276V142.069H63.9311V134.966Z" fill="black"/>
<path d="M71.0346 134.966H63.9312V142.069H71.0346V134.966Z" fill="black"/>
<path d="M78.1381 134.966H71.0347V142.069H78.1381V134.966Z" fill="black"/>
<path d="M92.3447 134.966H85.2412V142.069H92.3447V134.966Z" fill="black"/>
<path d="M99.4482 134.966H92.3447V142.069H99.4482V134.966Z" fill="black"/>
<path d="M113.655 134.966H106.552V142.069H113.655V134.966Z" fill="black"/>
<path d="M120.759 134.966H113.655V142.069H120.759V134.966Z" fill="black"/>
<path d="M149.172 134.966H142.069V142.069H149.172V134.966Z" fill="black"/>
<path d="M170.483 134.966H163.379V142.069H170.483V134.966Z" fill="black"/>
<path d="M63.9311 142.069H56.8276V149.172H63.9311V142.069Z" fill="black"/>
<path d="M71.0346 142.069H63.9312V149.172H71.0346V142.069Z" fill="black"/>
<path d="M92.3447 142.069H85.2412V149.172H92.3447V142.069Z" fill="black"/>
<path d="M113.655 142.069H106.552V149.172H113.655V142.069Z" fill="black"/>
<path d="M120.759 142.069H113.655V149.172H120.759V142.069Z" fill="black"/>
<path d="M127.862 142.069H120.759V149.172H127.862V142.069Z" fill="black"/>
<path d="M134.966 142.069H127.862V149.172H134.966V142.069Z" fill="black"/>
<path d="M142.069 142.069H134.965V149.172H142.069V142.069Z" fill="black"/>
<path d="M149.172 142.069H142.069V149.172H149.172V142.069Z" fill="black"/>
<path d="M170.483 142.069H163.379V149.172H170.483V142.069Z" fill="black"/>
<path d="M177.586 142.069H170.483V149.172H177.586V142.069Z" fill="black"/>
<path d="M63.9311 149.172H56.8276V156.276H63.9311V149.172Z" fill="black"/>
<path d="M99.4482 149.172H92.3447V156.276H99.4482V149.172Z" fill="black"/>
<path d="M106.552 149.172H99.4482V156.276H106.552V149.172Z" fill="black"/>
<path d="M113.655 149.172H106.552V156.276H113.655V149.172Z" fill="black"/>
<path d="M134.966 149.172H127.862V156.276H134.966V149.172Z" fill="black"/>
<path d="M170.483 149.172H163.379V156.276H170.483V149.172Z" fill="black"/>
<path d="M177.586 149.172H170.483V156.276H177.586V149.172Z" fill="black"/>
<path d="M71.0346 156.276H63.9312V163.379H71.0346V156.276Z" fill="black"/>
<path d="M78.1381 156.276H71.0347V163.379H78.1381V156.276Z" fill="black"/>
<path d="M92.3447 156.276H85.2412V163.379H92.3447V156.276Z" fill="black"/>
<path d="M99.4482 156.276H92.3447V163.379H99.4482V156.276Z" fill="black"/>
<path d="M127.862 156.276H120.759V163.379H127.862V156.276Z" fill="black"/>
<path d="M149.172 156.276H142.069V163.379H149.172V156.276Z" fill="black"/>
<path d="M156.276 156.276H149.172V163.379H156.276V156.276Z" fill="black"/>
<path d="M163.379 156.276H156.276V163.379H163.379V156.276Z" fill="black"/>
<path d="M170.483 156.276H163.379V163.379H170.483V156.276Z" fill="black"/>
<path d="M177.586 156.276H170.483V163.379H177.586V156.276Z" fill="black"/>
<path d="M78.1381 163.379H71.0347V170.483H78.1381V163.379Z" fill="black"/>
<path d="M106.552 163.379H99.4482V170.483H106.552V163.379Z" fill="black"/>
<path d="M142.069 163.379H134.965V170.483H142.069V163.379Z" fill="black"/>
<path d="M149.172 163.379H142.069V170.483H149.172V163.379Z" fill="black"/>
<path d="M163.379 163.379H156.276V170.483H163.379V163.379Z" fill="black"/>
<path d="M170.483 163.379H163.379V170.483H170.483V163.379Z" fill="black"/>
<path d="M177.586 163.379H170.483V170.483H177.586V163.379Z" fill="black"/>
<path d="M63.9311 170.483H56.8276V177.586H63.9311V170.483Z" fill="black"/>
<path d="M92.3447 170.483H85.2412V177.586H92.3447V170.483Z" fill="black"/>
<path d="M99.4482 170.483H92.3447V177.586H99.4482V170.483Z" fill="black"/>
<path d="M106.552 170.483H99.4482V177.586H106.552V170.483Z" fill="black"/>
<path d="M120.759 170.483H113.655V177.586H120.759V170.483Z" fill="black"/>
<path d="M127.862 170.483H120.759V177.586H127.862V170.483Z" fill="black"/>
<path d="M156.276 170.483H149.172V177.586H156.276V170.483Z" fill="black"/>
<path d="M177.586 170.483H170.483V177.586H177.586V170.483Z" fill="black"/>
<path d="M42.2655 0H7.45862H0V7.45862V42.2655V49.7241H7.45862H42.2655H49.7241V42.2655V7.45862V0H42.2655ZM42.2655 42.2655H7.45862V7.45862H42.2655V42.2655Z" fill="black"/>
<path d="M170.128 0H135.321H127.862V7.45862V42.2655V49.7241H135.321H170.128H177.586V42.2655V7.45862V0H170.128ZM170.128 42.2655H135.321V7.45862H170.128V42.2655Z" fill="black"/>
<path d="M42.2655 127.862H7.45862H0V135.321V170.128V177.586H7.45862H42.2655H49.7241V170.128V135.321V127.862H42.2655ZM42.2655 170.128H7.45862V135.321H42.2655V170.128Z" fill="black"/>
<path d="M35.5174 14.2068H14.207V35.5171H35.5174V14.2068Z" fill="black"/>
<path d="M163.379 14.2068H142.069V35.5171H163.379V14.2068Z" fill="black"/>
<path d="M35.5174 142.069H14.207V163.379H35.5174V142.069Z" fill="black"/>
</svg>
