<svg width="73" height="59" viewBox="0 0 73 59" fill="none" xmlns="http://www.w3.org/2000/svg">
<g opacity="0.4">
<path d="M6.28862 8.59941C-0.582989 16.0573 0.108905 25.6346 0.130755 25.7438L0.130753 54.8763C0.130753 55.8421 0.514412 56.7683 1.19733 57.4512C1.88026 58.1342 2.8065 58.5178 3.7723 58.5178L25.6216 58.5178C29.6383 58.5178 32.9047 55.2513 32.9047 51.2347L32.9047 25.7438C32.9047 24.778 32.5211 23.8518 31.8381 23.1689C31.1552 22.486 30.229 22.1023 29.2632 22.1023L18.0545 22.1023C18.1314 20.3019 18.6693 18.5515 19.6167 17.0187C21.4666 14.1018 24.9516 12.1099 29.9806 11.1048L32.9047 10.5221L32.9047 0.252968L29.2632 0.252968C19.1287 0.252967 11.3977 3.0606 6.28862 8.59941ZM46.3712 8.59941C39.4959 16.0573 40.1915 25.6346 40.2133 25.7438L40.2133 54.8763C40.2133 55.8421 40.597 56.7683 41.2799 57.4512C41.9628 58.1342 42.8891 58.5178 43.8549 58.5178L65.7042 58.5178C69.7208 58.5178 72.9873 55.2513 72.9873 51.2347L72.9873 25.7438C72.9873 24.778 72.6036 23.8518 71.9207 23.1689C71.2378 22.486 70.3116 22.1023 69.3458 22.1023L58.1371 22.1023C58.214 20.302 58.7519 18.5515 59.6993 17.0187C61.5492 14.1018 65.0342 12.1099 70.0631 11.1048L72.9873 10.5222L72.9873 0.252972L69.3458 0.252971C59.2113 0.25297 51.4803 3.06061 46.3712 8.59941Z" fill="#5BCCBD"/>
</g>
</svg>
