<svg width="19" height="14" viewBox="0 0 19 14" fill="none" xmlns="http://www.w3.org/2000/svg">
<path fill-rule="evenodd" clip-rule="evenodd" d="M11.1621 0.33018C11.3028 0.189729 11.4934 0.11084 11.6921 0.11084C11.8909 0.11084 12.0815 0.189729 12.2221 0.33018L18.2221 6.33018C18.3626 6.47081 18.4415 6.66143 18.4415 6.86018C18.4415 7.05893 18.3626 7.24955 18.2221 7.39018L12.2221 13.3902C12.1535 13.4639 12.0707 13.523 11.9787 13.564C11.8867 13.605 11.7874 13.627 11.6867 13.6288C11.586 13.6305 11.4859 13.612 11.3925 13.5743C11.2992 13.5366 11.2143 13.4804 11.1431 13.4092C11.0719 13.338 11.0157 13.2532 10.978 13.1598C10.9403 13.0664 10.9218 12.9664 10.9235 12.8657C10.9253 12.765 10.9474 12.6656 10.9884 12.5736C11.0293 12.4816 11.0885 12.3988 11.1621 12.3302L15.8821 7.61018H1.69214C1.49323 7.61018 1.30246 7.53116 1.16181 7.39051C1.02116 7.24986 0.942139 7.05909 0.942139 6.86018C0.942139 6.66127 1.02116 6.4705 1.16181 6.32985C1.30246 6.1892 1.49323 6.11018 1.69214 6.11018H15.8821L11.1621 1.39018C11.0217 1.24955 10.9428 1.05893 10.9428 0.86018C10.9428 0.661429 11.0217 0.470805 11.1621 0.33018Z" fill="#EF6C4D"/>
</svg>
